# xmcd
#
# Track frame offsets:
#	150
#	12617
#	24715
#	39103
#	47965
#	63845
#	75097
#	89600
#	100693
#	113390
#	127195
#	146233
#	158585
#	168365
#
# Disc length: 2470 seconds
#
# Revision: 0
# Processed by: cddbd v1.5.1PL2 Copyright (c) Steve Scherf et al.
# Submitted via: dBpowerAMP V4.0
#
DISCID=aa09a40e
DTITLE=Various Artist - Amsterdam, wat ben je mooi
DYEAR=1900
DGENRE=
TTITLE0=Aan de Amsterdamse grachten
TTITLE1=Mijn wieggie was een stijfselkissie
TTITLE2=Amsterdam medly
TTITLE3=Oh, Amsterdam wat ben je mooi
TTITLE4=Bij ons in de Jordaan
TTITLE5=Een Pikketanussie
TTITLE6=Tulpen uit Amsterdam
TTITLE7=Sofietje
TTITLE8=Een glimlach van een kind
TTITLE9=De Westertoren
TTITLE10=Waar geraniums bloeien
TTITLE11=Pruimenpap
TTITLE12=Oh, Waterlooplein
TTITLE13=De Vlieger
EXTD=Amsterdam wat ben je mooi
EXTT0=
EXTT1=
EXTT2=
EXTT3=
EXTT4=
EXTT5=
EXTT6=
EXTT7=
EXTT8=
EXTT9=
EXTT10=
EXTT11=
EXTT12=
EXTT13=
PLAYORDER=
